<mxfile host="app.diagrams.net" modified="2020-09-07T08:52:47.171Z" agent="5.0 (Macintosh; Intel Mac OS X 10_15_6) AppleWebKit/537.36 (KHTML, like Gecko) Chrome/85.0.4183.83 Safari/537.36" etag="idPOARgEb5QVZ2ddtjUu" version="13.6.6" type="github">
  <diagram id="pUsCOaguRWuN0sxT3217" name="Page-1">
    <mxGraphModel dx="946" dy="591" grid="1" gridSize="10" guides="1" tooltips="1" connect="1" arrows="1" fold="1" page="1" pageScale="1" pageWidth="827" pageHeight="1169" math="0" shadow="0">
      <root>
        <mxCell id="0" />
        <mxCell id="1" parent="0" />
        <mxCell id="CY2irEo_1ZUkvkNVLKb2-1" value="" style="rounded=1;whiteSpace=wrap;html=1;" parent="1" vertex="1">
          <mxGeometry x="180" y="250" width="120" height="60" as="geometry" />
        </mxCell>
        <mxCell id="OzkEb5a52PUVx_VbgJ6_-2" value="" style="rounded=1;whiteSpace=wrap;html=1;" vertex="1" parent="1">
          <mxGeometry x="414" y="240" width="120" height="60" as="geometry" />
        </mxCell>
        <mxCell id="OzkEb5a52PUVx_VbgJ6_-3" value="" style="endArrow=classic;startArrow=classic;html=1;exitX=1;exitY=0.5;exitDx=0;exitDy=0;entryX=0;entryY=0.5;entryDx=0;entryDy=0;" edge="1" parent="1" source="CY2irEo_1ZUkvkNVLKb2-1" target="OzkEb5a52PUVx_VbgJ6_-2">
          <mxGeometry width="50" height="50" relative="1" as="geometry">
            <mxPoint x="390" y="330" as="sourcePoint" />
            <mxPoint x="440" y="280" as="targetPoint" />
          </mxGeometry>
        </mxCell>
      </root>
    </mxGraphModel>
  </diagram>
</mxfile>
